<svg width="21" height="21" viewBox="0 0 21 21" fill="none" xmlns="http://www.w3.org/2000/svg">
<circle cx="10.5" cy="10.5" r="10" stroke="white"/>
<path d="M6.67329 13.6664H5.78082V10.0814C5.78082 9.6535 5.79094 9.31424 5.8112 9.06359C5.75297 9.12435 5.68081 9.19144 5.59473 9.26487C5.51118 9.33829 5.22761 9.57122 4.74403 9.96365L4.2959 9.39779L5.92893 8.11415H6.67329V13.6664Z" fill="white"/>
<path d="M10.3723 8.04199C10.8989 8.04199 11.3154 8.16352 11.6217 8.40658C11.9281 8.6471 12.0813 8.96991 12.0813 9.375C12.0813 9.94466 11.7395 10.3979 11.0559 10.7346C11.4914 10.9523 11.8002 11.1815 11.9825 11.422C12.1674 11.6625 12.2598 11.9309 12.2598 12.2271C12.2598 12.6854 12.0914 13.0525 11.7547 13.3285C11.4179 13.6044 10.9622 13.7424 10.3875 13.7424C9.7849 13.7424 9.31778 13.6133 8.98611 13.355C8.65444 13.0968 8.48861 12.7309 8.48861 12.2575C8.48861 11.9486 8.57469 11.6714 8.74685 11.4258C8.92155 11.1777 9.20638 10.9574 9.60135 10.765C9.26208 10.5624 9.02029 10.3485 8.87598 10.1232C8.73166 9.89782 8.65951 9.64464 8.65951 9.36361C8.65951 8.96105 8.81774 8.64077 9.13422 8.40278C9.4507 8.16225 9.86339 8.04199 10.3723 8.04199ZM9.3431 12.2271C9.3431 12.4904 9.43551 12.6955 9.62033 12.8423C9.80516 12.9867 10.0558 13.0588 10.3723 13.0588C10.6989 13.0588 10.9521 12.9841 11.1318 12.8347C11.3141 12.6828 11.4053 12.4778 11.4053 12.2195C11.4053 12.0144 11.3217 11.8271 11.1546 11.6574C10.9875 11.4878 10.7343 11.3308 10.3951 11.1865L10.2849 11.1372C9.95074 11.284 9.71021 11.446 9.56337 11.6233C9.41652 11.798 9.3431 11.9992 9.3431 12.2271ZM10.3647 8.72938C10.1115 8.72938 9.9077 8.79268 9.75326 8.91927C9.59881 9.04333 9.52159 9.21296 9.52159 9.42817C9.52159 9.55982 9.54944 9.67755 9.60514 9.78136C9.66084 9.88516 9.74186 9.98011 9.8482 10.0662C9.95454 10.1497 10.1343 10.251 10.3875 10.37C10.6913 10.2358 10.9052 10.0953 11.0293 9.94846C11.1559 9.79908 11.2192 9.62565 11.2192 9.42817C11.2192 9.21296 11.1407 9.04333 10.9837 8.91927C10.8293 8.79268 10.6229 8.72938 10.3647 8.72938Z" fill="white"/>
<path d="M14.4739 11.2625H12.9623V10.5865H14.4739V9.037H15.1574V10.5865H16.6727V11.2625H15.1574V12.8044H14.4739V11.2625Z" fill="white"/>
</svg>
