<svg width="78" height="67" viewBox="0 0 78 67" fill="none" xmlns="http://www.w3.org/2000/svg">
<path d="M27.2091 59.7436V61.7378C27.2091 63.9469 25.4182 65.7378 23.2091 65.7378H7.2587C5.18039 65.7378 3.44832 64.1462 3.27296 62.0753L0.739916 32.1611C0.708559 31.7908 1.00067 31.4729 1.37231 31.4729V31.4729H23.7646C25.6669 31.4729 27.2091 33.015 27.2091 34.9174V34.9174M27.2091 59.7436C27.2091 59.7436 29.2068 59.5032 30.4491 59.7436C31.5845 59.9632 32.7513 60.7126 33.753 61.546C35.6622 63.1345 37.9458 64.3689 40.4295 64.3689H63.5024C67.2026 64.3689 70.42 61.8314 71.2822 58.233L72.0663 54.9605M27.2091 59.7436V34.9174M27.2091 34.9174C27.2091 34.9174 37.782 26.2505 39.983 18.3982C41.085 14.4667 40.6517 8.72955 40.2873 5.6101C40.1256 4.22517 40.5923 2.77641 41.7751 2.03814C44.1607 0.549225 46.0589 0.744056 48.6476 1.83789C49.6388 2.25672 50.3753 3.11408 50.6958 4.14129C53.2255 12.2468 53.2623 17.2192 51.1217 25.7613H68.9194C74.0916 25.7613 77.9043 30.5955 76.6991 35.6254L76.4063 36.8474M76.4063 36.8474H62.8757M76.4063 36.8474L74.3206 45.5522M74.3206 45.5522H64.7915M74.3206 45.5522L72.0663 54.9605M72.0663 54.9605H65.5852M19.1217 57.1005C18.028 57.1502 17.1394 57.988 17.1394 59.0828C17.1394 60.1776 18.028 61.0154 19.1217 61.0651C20.2686 61.1172 21.2928 60.2309 21.2928 59.0828C21.2928 57.9347 20.2686 57.0484 19.1217 57.1005Z" stroke="#89001E"/>
</svg>
