<svg width="16" height="17" fill="none" xmlns="http://www.w3.org/2000/svg"><path d="M13.067.163H2.933A2.937 2.937 0 000 3.096V13.23a2.937 2.937 0 002.933 2.934h10.134a2.937 2.937 0 002.934-2.934V3.096A2.937 2.937 0 0013.067.163zM8 13.431a5.273 5.273 0 01-5.267-5.268A5.273 5.273 0 018 2.896a5.273 5.273 0 015.268 5.267A5.274 5.274 0 018 13.431zm5.437-9.446a1.248 1.248 0 01-1.247-1.246 1.248 1.248 0 012.493 0c0 .687-.559 1.246-1.246 1.246z" fill="#89001E"/><path d="M8 5.122a3.045 3.045 0 00-3.04 3.041 3.046 3.046 0 003.042 3.042 3.045 3.045 0 003.041-3.042 3.045 3.045 0 00-3.041-3.04z" fill="#89001E"/></svg>