<svg width="255" height="34" viewBox="0 0 255 34" fill="none" xmlns="http://www.w3.org/2000/svg">
<g clip-path="url(#clip0)">
<path d="M88.7393 9.4195C88.7393 6.98303 89.3506 5.15569 90.5729 3.93745C91.7953 2.5974 93.5068 1.98828 95.8298 1.98828C98.1523 1.98828 99.8639 2.5974 101.087 3.93745C102.309 5.15569 102.92 7.10486 102.92 9.4195V24.891C102.92 27.3275 102.309 29.1548 101.087 30.4949C99.8639 31.7131 98.1523 32.444 95.8298 32.444C93.5068 32.444 91.7953 31.835 90.5729 30.4949C89.3506 29.1548 88.7393 27.3275 88.7393 24.891V9.4195ZM93.3847 25.2565C93.3847 26.3529 93.6294 27.0839 93.9961 27.5711C94.4849 27.9366 95.0963 28.1802 95.8298 28.1802C96.5633 28.1802 97.1746 27.9366 97.5414 27.5711C98.0302 27.0839 98.2748 26.3529 98.2748 25.2565V9.17583C98.2748 8.07945 98.0302 7.34849 97.5414 6.8612C97.1746 6.3739 96.5633 6.13028 95.8298 6.13028C95.0963 6.13028 94.4849 6.3739 93.9961 6.8612C93.6294 7.2267 93.3847 8.07945 93.3847 9.05404V25.2565ZM76.8808 20.2617L75.4138 22.9418V32.0786H70.7683V2.35375H75.4138V15.267L81.5262 2.35375H86.1721L79.6925 15.6325L86.1721 32.0786H81.4041L76.8808 20.2617ZM49.4968 27.8148C49.9856 27.8148 50.3524 27.8148 50.8416 27.6929C51.2084 27.6929 51.4526 27.4493 51.6972 27.3275C51.9418 27.0839 52.064 26.8402 52.1861 26.3529C52.3086 25.9874 52.4307 25.3783 52.4307 24.6474L53.1642 2.23193H66.3675V31.9567H61.5995V6.61757H57.5654L57.0762 24.5256C56.9541 27.2056 56.4652 29.1548 55.3646 30.3731C54.2644 31.5913 52.6753 32.0786 50.3524 32.0786H49.6189V27.8148H49.4968ZM37.1494 22.5764H41.6728L39.4722 7.59216L37.1494 22.5764ZM47.7852 32.0786H43.1398L42.2838 26.7184H36.6604L35.8047 32.0786H31.5259L36.2937 2.35375H43.1398L47.7852 32.0786Z" fill="white"/>
<path d="M245.709 2.35449V25.2573C245.709 26.3536 245.954 27.0846 246.32 27.4501C246.809 27.8155 247.421 28.0592 248.154 28.0592C248.888 28.0592 249.499 27.8155 249.866 27.4501C250.355 27.0846 250.599 26.2318 250.599 25.2573V2.35449H255V25.0136C255 27.4501 254.389 29.2774 253.166 30.6174C252.066 31.8357 250.232 32.5666 248.032 32.5666C245.709 32.5666 243.998 31.9575 242.775 30.6174C241.675 29.2774 241.064 27.4501 241.064 25.0136V2.35449H245.709ZM228.105 6.61831V15.7551H229.939C230.795 15.7551 231.528 15.5114 232.017 15.0241C232.506 14.5368 232.75 13.8059 232.75 12.5876V9.66387C232.75 8.56748 232.506 7.83652 232.139 7.34923C231.773 6.86194 231.161 6.61831 230.305 6.61831H228.105ZM233.117 32.0793C233.117 31.8357 232.995 31.7139 232.995 31.4702C232.995 31.3484 232.873 31.1047 232.873 30.8611C232.873 30.6174 232.873 30.252 232.75 29.8865V23.6735C232.75 22.3335 232.506 21.3589 232.017 20.7498C231.528 20.1407 230.795 19.897 229.694 19.897H228.105V31.9575H223.459V2.35449H230.428C232.873 2.35449 234.584 2.96361 235.685 4.06001C236.785 5.15643 237.396 6.86194 237.396 9.17657V11.4912C237.396 14.5368 236.418 16.6078 234.34 17.5824C235.562 18.0697 236.296 18.8006 236.785 20.0189C237.274 21.1152 237.518 22.4553 237.518 23.9172V28.5465C237.518 29.2774 237.518 29.8865 237.641 30.4956C237.763 31.1047 237.885 31.592 238.007 32.2012L233.117 32.0793ZM219.181 27.5719V32.0793H214.657V27.5719H219.181ZM199.988 2.35449H214.413V6.61831H209.523V32.0793H204.877V6.61831H199.988V2.35449ZM189.474 14.9023H195.831V19.1661H189.474V27.8155H197.542V32.0793H184.828V2.35449H197.542V6.61831H189.474V14.9023ZM172.603 20.2625L171.136 22.9426V32.0793H166.491V2.35449H171.136V15.2678L177.249 2.35449H181.894L175.415 15.6332L181.894 32.0793H177.127L172.603 20.2625ZM153.288 6.61831V15.7551H155.121C155.977 15.7551 156.711 15.5114 157.2 15.0241C157.689 14.5368 157.933 13.8059 157.933 12.5876V9.66387C157.933 8.56748 157.689 7.83652 157.322 7.34923C156.955 6.86194 156.344 6.61831 155.488 6.61831H153.288ZM158.3 32.0793C158.3 31.8357 158.177 31.7139 158.177 31.4702C158.177 31.3484 158.055 31.1047 158.055 30.8611C158.055 30.6174 158.055 30.252 157.933 29.8865V23.6735C157.933 22.3335 157.689 21.3589 157.2 20.7498C156.711 20.1407 155.977 19.897 154.877 19.897H153.288V31.9575H148.642V2.35449H155.61C158.055 2.35449 159.767 2.96361 160.867 4.06001C161.967 5.15643 162.579 6.86194 162.579 9.17657V11.4912C162.579 14.5368 161.601 16.6078 159.522 17.5824C160.745 18.0697 161.479 18.8006 161.967 20.0189C162.456 21.1152 162.701 22.4553 162.701 23.9172V28.5465C162.701 29.2774 162.701 29.8865 162.823 30.4956C162.945 31.1047 163.068 31.592 163.19 32.2012L158.3 32.0793ZM134.95 22.5771H139.473L137.151 7.5929L134.95 22.5771ZM145.586 32.0793H140.94L140.084 26.7191H134.339L133.483 32.0793H129.327L134.094 2.35449H140.94L145.586 32.0793ZM116.613 23.4299L119.791 2.35449H126.27V32.0793H121.869V10.7603L118.691 32.0793H114.29L110.744 11.0039V32.0793H106.71V2.35449H113.189L116.613 23.4299Z" fill="white"/>
<path fill-rule="evenodd" clip-rule="evenodd" d="M1.38016 11.1176C0.624589 11.8669 0.199585 12.887 0.199585 13.9511V31.1132C0.199585 32.2152 1.09291 33.1086 2.19489 33.1086H24.596C25.698 33.1086 26.5913 32.2152 26.5913 31.1132V13.9511C26.5913 12.887 26.1663 11.8669 25.4107 11.1176L14.8005 0.59516C14.0226 -0.176252 12.7683 -0.176251 11.9904 0.59516L1.38016 11.1176ZM25.7908 14.0611V30.702C25.7908 31.5835 25.0761 32.2982 24.1945 32.2982H2.63117C1.74959 32.2982 1.03492 31.5835 1.03492 30.702V14.0611C1.03492 13.3162 1.33243 12.6022 1.86133 12.0776L12.2889 1.73646C12.9111 1.11933 13.9146 1.11933 14.5369 1.73646L24.9644 12.0776C25.4933 12.6022 25.7908 13.3162 25.7908 14.0611ZM2.42333 12.6443C2.04555 13.019 1.83305 13.529 1.83305 14.0611V30.702C1.83305 31.1427 2.19038 31.5001 2.63117 31.5001H24.1945C24.6353 31.5001 24.9926 31.1427 24.9926 30.702V14.0611C24.9926 13.529 24.7801 13.019 24.4024 12.6443L13.9749 2.30315C13.6637 1.99459 13.162 1.99459 12.8509 2.30315L2.42333 12.6443ZM13.8881 9.69855L15.1973 7.38619C15.376 7.07042 15.3193 6.67379 15.0591 6.42079L13.3024 4.71236L11.5643 6.42083C11.3067 6.67407 11.2513 7.06882 11.4293 7.38324L12.7401 9.69855L9.7646 8.22797C9.7646 8.22797 10.142 9.75334 11.5064 11.1372C11.9877 10.7203 12.6156 10.4681 13.3024 10.4681C13.9891 10.4681 14.617 10.7203 15.0983 11.1372C16.4628 9.75338 16.8402 8.22797 16.8402 8.22797L13.8881 9.69855ZM13.3023 16.3855C14.3398 16.3855 15.1808 15.565 15.1808 14.5528C15.1808 13.5406 14.3398 12.7201 13.3023 12.7201C12.2648 12.7201 11.4238 13.5406 11.4238 14.5528C11.4238 15.565 12.2648 16.3855 13.3023 16.3855ZM15.1985 22.8666C15.1985 23.8788 14.3575 24.6993 13.32 24.6993C12.2826 24.6993 11.4415 23.8788 11.4415 22.8666C11.4415 21.8544 12.2826 21.0339 13.32 21.0339C14.3575 21.0339 15.1985 21.8544 15.1985 22.8666ZM10.5311 20.5956C11.5686 20.5956 12.4096 19.775 12.4096 18.7628C12.4096 17.7506 11.5686 16.9301 10.5311 16.9301C9.4936 16.9301 8.65254 17.7506 8.65254 18.7628C8.65254 19.775 9.4936 20.5956 10.5311 20.5956ZM17.9877 18.7628C17.9877 19.775 17.1466 20.5956 16.1092 20.5956C15.0717 20.5956 14.2306 19.775 14.2306 18.7628C14.2306 17.7506 15.0717 16.9301 16.1092 16.9301C17.1466 16.9301 17.9877 17.7506 17.9877 18.7628ZM7.6712 16.3862C8.70868 16.3862 9.5497 15.5657 9.5497 14.5535C9.5497 13.5413 8.70868 12.7208 7.6712 12.7208C6.63373 12.7208 5.79266 13.5413 5.79266 14.5535C5.79266 15.5657 6.63373 16.3862 7.6712 16.3862ZM20.8119 14.5531C20.8119 15.5653 19.9709 16.3858 18.9334 16.3858C17.8959 16.3858 17.0548 15.5653 17.0548 14.5531C17.0548 13.541 17.8959 12.7204 18.9334 12.7204C19.9709 12.7204 20.8119 13.541 20.8119 14.5531ZM5.15732 28.6091C5.15732 28.5152 5.12164 28.4434 5.05029 28.3936C4.97894 28.3428 4.85048 28.2897 4.665 28.2345C4.47947 28.1781 4.33258 28.1228 4.22435 28.0687C3.92944 27.9206 3.78197 27.7211 3.78197 27.4703C3.78197 27.3398 3.82122 27.2238 3.8997 27.1221C3.97938 27.0194 4.09294 26.9392 4.24044 26.8818C4.38909 26.8243 4.55558 26.7955 4.7399 26.7955C4.92543 26.7955 5.09072 26.8271 5.23582 26.89C5.38091 26.9519 5.49329 27.0398 5.57298 27.1536C5.65383 27.2675 5.69426 27.3967 5.69426 27.5415H5.15912C5.15912 27.431 5.12164 27.3454 5.04674 27.2846C4.9718 27.2227 4.86656 27.1918 4.731 27.1918C4.60015 27.1918 4.49847 27.2177 4.42596 27.2696C4.35341 27.3205 4.31714 27.3879 4.31714 27.4719C4.31714 27.5504 4.35936 27.6161 4.4438 27.6692C4.5294 27.7222 4.65486 27.7719 4.82019 27.8184C5.12464 27.9035 5.3464 28.009 5.48555 28.135C5.6247 28.261 5.69426 28.4179 5.69426 28.6058C5.69426 28.8147 5.60922 28.9788 5.43918 29.0982C5.2691 29.2164 5.0402 29.2756 4.75239 29.2756C4.55258 29.2756 4.37065 29.2418 4.20652 29.1744C4.04242 29.1059 3.91695 29.0125 3.83013 28.8943C3.74451 28.776 3.7017 28.639 3.7017 28.4832H4.23864C4.23864 28.7495 4.40988 28.8827 4.75239 28.8827C4.87965 28.8827 4.97894 28.8589 5.05029 28.8114C5.12164 28.7628 5.15732 28.6953 5.15732 28.6091ZM6.62722 29.2424H6.09208V26.8287H6.62722V29.2424ZM8.70186 29.2424H9.237V26.8287H8.70366V28.4201L7.66007 26.8287H7.12493V29.2424H7.66007V27.6543L8.70186 29.2424ZM11.7433 28.4384C11.7231 28.6981 11.6196 28.9026 11.433 29.0518C11.2474 29.2009 11.0024 29.2756 10.698 29.2756C10.365 29.2756 10.1028 29.1717 9.91129 28.9639C9.72102 28.755 9.62589 28.4688 9.62589 28.1052V27.9576C9.62589 27.7255 9.6699 27.5211 9.75789 27.3443C9.84589 27.1674 9.97135 27.032 10.1343 26.9381C10.2984 26.8431 10.4887 26.7955 10.7051 26.7955C11.0048 26.7955 11.2462 26.8702 11.4294 27.0194C11.6125 27.1685 11.7184 27.378 11.7469 27.6476H11.2118C11.1987 27.4918 11.1517 27.3791 11.0708 27.3094C10.9912 27.2387 10.8692 27.2034 10.7051 27.2034C10.5267 27.2034 10.393 27.263 10.3038 27.3824C10.2157 27.5006 10.1706 27.6847 10.1682 27.9344V28.1168C10.1682 28.3776 10.2104 28.5682 10.2948 28.6887C10.3805 28.8092 10.5148 28.8694 10.698 28.8694C10.8633 28.8694 10.9864 28.8346 11.0673 28.765C11.1493 28.6942 11.1963 28.5854 11.2082 28.4384H11.7433ZM12.6299 28.1963H13.6574V27.8068H12.6299V27.2315H13.8322V26.8287H12.0948V29.2424H13.8358V28.8429H12.6299V28.1963ZM16.7845 29.2424H15.0042V28.9142L15.8444 28.082C15.9598 27.9648 16.0448 27.8626 16.0995 27.7753C16.1554 27.688 16.1834 27.6051 16.1834 27.5266C16.1834 27.4194 16.1542 27.3354 16.0959 27.2746C16.0377 27.2127 15.9544 27.1818 15.8462 27.1818C15.7296 27.1818 15.6375 27.2194 15.5697 27.2945C15.5031 27.3686 15.4698 27.4664 15.4698 27.5879H14.9525C14.9525 27.441 14.9899 27.3067 15.0649 27.1851C15.141 27.0635 15.248 26.9685 15.386 26.9C15.5239 26.8304 15.6803 26.7955 15.8551 26.7955C16.1227 26.7955 16.3302 26.8552 16.4777 26.9746C16.6263 27.0939 16.7007 27.2625 16.7007 27.4802C16.7007 27.5996 16.6674 27.7211 16.6008 27.8449C16.5342 27.9687 16.42 28.1129 16.2583 28.2776L15.6678 28.8562H16.7845V29.2424ZM18.6272 29.0103C18.7759 28.8335 18.8502 28.5782 18.8502 28.2444V27.8002C18.8467 27.4763 18.77 27.2282 18.6201 27.0558C18.4703 26.8823 18.2538 26.7955 17.9708 26.7955C17.6878 26.7955 17.4707 26.8828 17.3197 27.0575C17.1698 27.2321 17.0949 27.4879 17.0949 27.825V28.2693C17.0985 28.5931 17.1752 28.8418 17.325 29.0153C17.4749 29.1888 17.6913 29.2756 17.9744 29.2756C18.261 29.2756 18.4786 29.1871 18.6272 29.0103ZM18.2455 27.321C18.3049 27.4117 18.3347 27.557 18.3347 27.7571V28.3306C18.3323 28.5196 18.3032 28.66 18.2473 28.7517C18.1914 28.8434 18.1004 28.8893 17.9744 28.8893C17.8471 28.8893 17.7544 28.8418 17.6961 28.7467C17.639 28.6506 17.6105 28.5041 17.6105 28.3074V27.7206C17.614 27.536 17.6443 27.4006 17.7014 27.3144C17.7597 27.2271 17.8495 27.1835 17.9708 27.1835C18.0956 27.1835 18.1872 27.2293 18.2455 27.321ZM20.4521 29.2424H19.9366V27.3956L19.3212 27.573V27.1835L20.3968 26.8254H20.4521V29.2424ZM22.896 27.7819C22.959 27.6913 22.9906 27.5874 22.9906 27.4703C22.9906 27.2625 22.9163 27.0984 22.7676 26.9779C22.6201 26.8563 22.4203 26.7955 22.1682 26.7955C21.9149 26.7955 21.7145 26.8569 21.567 26.9795C21.4196 27.1011 21.3458 27.2647 21.3458 27.4703C21.3458 27.5874 21.3768 27.6913 21.4386 27.7819C21.5016 27.8726 21.5885 27.9449 21.699 27.9991C21.5742 28.0543 21.4749 28.1317 21.4011 28.2311C21.3274 28.3306 21.2906 28.4472 21.2906 28.581C21.2906 28.7943 21.3696 28.9633 21.5278 29.0883C21.686 29.2131 21.9 29.2756 22.17 29.2756C22.4399 29.2756 22.6534 29.2137 22.8104 29.0899C22.9674 28.965 23.0459 28.7954 23.0459 28.581C23.0459 28.4472 23.009 28.3312 22.9352 28.2328C22.8615 28.1334 22.7616 28.0554 22.6356 27.9991C22.7462 27.9449 22.833 27.8726 22.896 27.7819ZM22.4304 28.2942C22.4958 28.3572 22.5285 28.4411 22.5285 28.5461C22.5285 28.6534 22.4964 28.7374 22.4322 28.7981C22.3692 28.8589 22.2818 28.8893 22.17 28.8893C22.0558 28.8893 21.9666 28.8578 21.9024 28.7948C21.8382 28.7318 21.8061 28.6489 21.8061 28.5461C21.8061 28.4401 21.8388 28.3561 21.9042 28.2942C21.9696 28.2311 22.057 28.1997 22.1664 28.1997C22.277 28.1997 22.365 28.2311 22.4304 28.2942ZM22.3948 27.268C22.4483 27.3244 22.475 27.3995 22.475 27.4934C22.475 27.5896 22.4483 27.667 22.3948 27.7255C22.3424 27.7841 22.2675 27.8134 22.17 27.8134C22.0725 27.8134 21.9969 27.7841 21.9434 27.7255C21.8899 27.667 21.8632 27.5896 21.8632 27.4934C21.8632 27.3962 21.8899 27.3199 21.9434 27.2647C21.9969 27.2094 22.0719 27.1818 22.1682 27.1818C22.2657 27.1818 22.3412 27.2106 22.3948 27.268Z" fill="white"/>
</g>
<defs>
<clipPath id="clip0">
<rect width="255" height="33.1221" fill="white"/>
</clipPath>
</defs>
</svg>
