<svg width="160" height="21" fill="none" xmlns="http://www.w3.org/2000/svg"><g clip-path="url(#clip0)"><path d="M57.474 6.252c0-1.49.374-2.609 1.122-3.354.748-.82 1.795-1.193 3.217-1.193 1.42 0 2.468.373 3.216 1.193.748.745 1.123 1.938 1.123 3.354v9.467c0 1.491-.375 2.61-1.123 3.43-.748.745-1.795 1.192-3.216 1.192-1.422 0-2.469-.373-3.217-1.193-.748-.82-1.122-1.938-1.122-3.429V6.252zm2.843 9.691c0 .67.15 1.118.374 1.416.299.224.673.373 1.122.373.449 0 .823-.149 1.047-.373.3-.298.449-.745.449-1.416v-9.84c0-.67-.15-1.118-.449-1.416-.224-.298-.598-.447-1.047-.447-.449 0-.823.149-1.122.447-.225.224-.374.745-.374 1.342v9.914zm-10.1-3.056l-.897 1.64v5.59h-2.842V1.93h2.842v7.9l3.74-7.901h2.843l-3.965 8.125 3.965 10.063h-2.917l-2.768-7.23zm-16.755 4.622c.299 0 .523 0 .822-.075.225 0 .374-.15.524-.224.15-.149.224-.298.3-.596.074-.224.149-.596.149-1.044l.449-13.716h8.079v18.189h-2.918V4.538H38.4l-.3 10.958c-.074 1.64-.373 2.832-1.047 3.578-.673.745-1.645 1.043-3.067 1.043h-.449V17.51h-.074zm-7.556-3.206h2.768l-1.347-9.169-1.42 9.17zm6.508 5.814h-2.842l-.524-3.28h-3.44l-.525 3.28h-2.618L25.382 1.93h4.19l2.842 18.189z" fill="#891723"/><path d="M153.524 1.929v14.014c0 .671.15 1.118.374 1.342a1.84 1.84 0 001.122.373c.449 0 .823-.15 1.047-.373.3-.224.449-.746.449-1.342V1.93h2.693v13.865c0 1.49-.374 2.609-1.122 3.429-.673.745-1.795 1.193-3.142 1.193-1.421 0-2.468-.373-3.216-1.193-.674-.82-1.047-1.938-1.047-3.429V1.929h2.842zm-10.772 2.609v5.59h1.122c.524 0 .973-.148 1.272-.447.299-.298.449-.745.449-1.49V6.4c0-.67-.15-1.118-.374-1.416-.225-.298-.599-.447-1.122-.447h-1.347zm3.067 15.58c0-.15-.075-.224-.075-.373 0-.075-.075-.224-.075-.373s0-.373-.074-.596v-3.802c0-.82-.15-1.416-.449-1.789-.299-.373-.748-.522-1.422-.522h-.972v7.38h-2.842V1.929h4.263c1.496 0 2.544.373 3.217 1.043.673.671 1.047 1.715 1.047 3.131V7.52c0 1.863-.598 3.13-1.87 3.727.748.298 1.197.745 1.496 1.49.3.672.449 1.492.449 2.386v2.833c0 .447 0 .82.075 1.192.075.373.15.671.224 1.044l-2.992-.075zm-8.528-2.759v2.758h-2.767V17.36h2.767zM125.547 1.93h8.827v2.609h-2.992v15.58h-2.843V4.537h-2.992v-2.61zm-6.433 7.678h3.89v2.609h-3.89v5.293h4.937v2.608h-7.78V1.93h7.78v2.609h-4.937v5.069zm-10.323 3.28l-.898 1.64v5.59h-2.843V1.93h2.843v7.9l3.74-7.902h2.843l-3.965 8.125 3.965 10.063h-2.918l-2.767-7.23zm-11.82-8.35v5.592h1.122c.524 0 .973-.15 1.272-.448.3-.298.449-.745.449-1.49V6.4c0-.67-.15-1.118-.374-1.416-.224-.298-.599-.447-1.122-.447H96.97zm3.067 15.58c0-.149-.075-.223-.075-.372 0-.075-.074-.224-.074-.373s0-.373-.075-.596v-3.802c0-.82-.15-1.416-.45-1.789-.298-.373-.747-.522-1.42-.522h-.973v7.38H94.13V1.929h4.264c1.496 0 2.543.373 3.216 1.043.673.671 1.048 1.715 1.048 3.131V7.52c0 1.863-.599 3.13-1.871 3.727.748.298 1.197.745 1.496 1.49.3.672.449 1.492.449 2.386v2.833c0 .447 0 .82.075 1.192.075.373.15.671.224 1.044l-2.992-.075zM85.75 14.303h2.768l-1.421-9.169-1.347 9.17zm6.509 5.814h-2.843l-.524-3.28h-3.516l-.523 3.28H82.31L85.227 1.93h4.189l2.843 18.189zm-17.73-5.292l1.946-12.896h3.964v18.189h-2.693V7.072l-1.945 13.046h-2.693L70.94 7.22v12.896h-2.468V1.93h3.964l2.095 12.896z" fill="#000"/><path d="M.122 10.328c0-.651.26-1.275.722-1.734L8.651.853a1.22 1.22 0 011.719 0l7.806 7.741c.463.459.723 1.083.723 1.734v9.451a1.22 1.22 0 01-1.221 1.22H1.343a1.22 1.22 0 01-1.22-1.22v-9.451z" fill="#891723"/><path d="M10.993 10.851c0 .672-.72-.14-1.606-.14-.887 0-1.606.812-1.606.14 0-.671.719-1.216 1.606-1.216.887 0 1.606.545 1.606 1.216z" fill="#891723"/><path d="M10.993 10.851c0 .672-.72-.14-1.606-.14-.887 0-1.606.812-1.606.14 0-.671.719-1.216 1.606-1.216.887 0 1.606.545 1.606 1.216z" fill="#891723"/><path d="M9.86 7.468l.962-1.699a.489.489 0 00-.084-.59L9.444 3.92l-1.28 1.26a.488.488 0 00-.083.589l.963 1.7-2.117-1.046s.333 1.347 1.6 2.401c.2-.301.534-.333.917-.333s.717.049.917.333c1.267-1.054 1.6-2.401 1.6-2.401l-2.1 1.046z" fill="#fff"/><path d="M11.397 9.968c0 1.078-.875-.225-1.953-.225s-1.953 1.303-1.953.225a1.953 1.953 0 113.906 0z" fill="#891723"/><path d="M10.78 10.922c0 .72-.598 1.303-1.336 1.303-.738 0-1.336-.583-1.336-1.303s.598-1.304 1.336-1.304c.738 0 1.337.583 1.337 1.304zm.013 5.914c0 .72-.598 1.304-1.336 1.304-.738 0-1.337-.584-1.337-1.304 0-.72.599-1.303 1.337-1.303s1.336.583 1.336 1.303zm-1.984-2.919c0 .72-.598 1.304-1.337 1.304-.738 0-1.336-.584-1.336-1.304 0-.72.598-1.304 1.336-1.304.739 0 1.337.584 1.337 1.304zm3.968 0c0 .72-.598 1.304-1.336 1.304-.738 0-1.337-.584-1.337-1.304 0-.72.599-1.304 1.337-1.304s1.336.584 1.336 1.304zm-6.003-2.995c0 .72-.598 1.304-1.336 1.304-.738 0-1.337-.584-1.337-1.304 0-.72.599-1.304 1.337-1.304s1.336.584 1.336 1.304zm8.013 0c0 .72-.599 1.304-1.337 1.304s-1.336-.584-1.336-1.304c0-.72.598-1.304 1.336-1.304.738 0 1.337.584 1.337 1.304z" fill="#fff"/><path fill-rule="evenodd" clip-rule="evenodd" d="M18.005 10.489v8.878a.733.733 0 01-.732.733h-15.5a.733.733 0 01-.733-.733V10.49c0-.39.156-.765.433-1.04l7.534-7.471a.733.733 0 011.032 0l7.533 7.47c.277.276.433.65.433 1.04zm-16.36-.867c-.23.23-.36.541-.36.867v8.878c0 .27.218.489.488.489h15.5c.27 0 .488-.22.488-.489V10.49c0-.326-.13-.638-.361-.867L9.867 2.151a.488.488 0 00-.688 0L1.645 9.622z" fill="#fff"/></g><defs><clipPath id="clip0"><path fill="#fff" d="M0 0h159.209v21H0z"/></clipPath></defs></svg>