<svg width="62" height="67" viewBox="0 0 62 67" fill="none" xmlns="http://www.w3.org/2000/svg">
<path d="M56.1323 45.6536H56.1282C54.1905 45.6525 53.0965 44.6527 52.4703 42.3126C51.8302 39.9193 51.8086 36.4484 51.786 32.7736C51.7587 28.3213 51.7279 23.2751 50.6148 18.762C50.4832 18.2283 49.9408 17.9017 49.4041 18.0325C48.8679 18.1634 48.5393 18.7022 48.6704 19.2358C49.728 23.5215 49.7578 28.4435 49.7845 32.7859C49.8082 36.591 49.8298 40.1851 50.5357 42.8237C50.8426 43.9713 51.2827 44.9144 51.8513 45.6536H10.1487C10.7173 44.9144 11.1574 43.9713 11.4643 42.8237C12.1702 40.1851 12.1923 36.591 12.2154 32.7859C12.2509 26.9765 12.2915 20.3921 14.6822 15.353C17.373 9.68053 22.7106 6.92277 31.0002 6.92277C35.5527 6.92277 39.278 7.77335 42.0723 9.45152C44.4953 10.9063 46.2741 12.974 47.5106 15.7726C47.7327 16.2756 48.3234 16.5046 48.8293 16.2833C49.3352 16.0625 49.5655 15.4757 49.3434 14.9722C47.9548 11.8295 45.8567 9.39887 43.1072 7.7478C41.352 6.69376 39.2909 5.93366 36.9434 5.47054C36.7069 2.41528 34.1327 0 31.0002 0C27.8677 0 25.293 2.41579 25.0581 5.47156C22.8186 5.9127 20.8387 6.62373 19.1396 7.60262C16.4055 9.17805 14.2966 11.5003 12.8714 14.5039C10.2926 19.9402 10.2505 26.7582 10.214 32.7736C10.1913 36.4484 10.1703 39.9193 9.52967 42.3126C8.90348 44.6527 7.80944 45.6525 5.87173 45.6536H5.86762C2.63228 45.6536 0 48.2708 0 51.4881C0 54.7048 2.63228 57.322 5.86762 57.322H12.2021C12.7547 57.322 13.203 56.8763 13.203 56.3268C13.203 55.7773 12.7547 55.3321 12.2021 55.3321H5.86762C3.73609 55.3321 2.00146 53.6074 2.00146 51.4881C2.00146 49.3687 3.73557 47.6446 5.8671 47.6441H5.86762H5.87122H56.1282H56.1318H56.1328C58.2639 47.6446 59.998 49.3687 59.998 51.4881C59.998 53.6074 58.2633 55.3321 56.1318 55.3321H16.2055C15.6528 55.3321 15.205 55.7773 15.205 56.3268C15.205 56.8763 15.6528 57.322 16.2055 57.322H20.3138C20.8202 62.7425 25.4185 67 31.0002 67C36.5815 67 41.1797 62.7425 41.6862 57.322H56.1323C59.3677 57.322 61.9999 54.7048 61.9999 51.4881C61.9999 48.2708 59.3677 45.6536 56.1323 45.6536ZM31.0002 1.98998C32.9169 1.98998 34.5199 3.35123 34.8834 5.15208C33.6546 5.00793 32.3611 4.93279 31.0002 4.93279C29.6394 4.93279 28.3458 5.00742 27.1176 5.15157C27.4811 3.35072 29.0836 1.98998 31.0002 1.98998ZM31.0002 65.01C26.5233 65.01 22.8242 61.6424 22.326 57.322H39.6739C39.1757 61.6424 35.4767 65.01 31.0002 65.01Z" fill="#89001E"/>
<path d="M46.3527 6.41955C46.3712 6.42972 48.2048 7.4888 50.0088 9.9491C52.4253 13.2441 53.65 17.3605 53.65 22.1842C53.65 22.7598 54.1113 23.2267 54.68 23.2267C55.2487 23.2267 55.71 22.7598 55.71 22.1842C55.71 15.5438 53.4696 11.1361 51.59 8.60839C49.5247 5.83058 47.4398 4.64567 47.352 4.59641C46.8553 4.31906 46.2321 4.50111 45.956 5.00227C45.6798 5.50397 45.8581 6.13791 46.3527 6.41955Z" fill="#89001E"/>
<path d="M54.3609 7.16127C54.519 7.26434 58.2362 9.74752 58.2362 15.995C58.2362 16.5354 58.6767 16.9734 59.2197 16.9734C59.7627 16.9734 60.2027 16.5354 60.2027 15.995C60.2027 8.62634 55.6166 5.63636 55.4211 5.51268C54.965 5.22359 54.3619 5.35732 54.0689 5.81032C53.7759 6.26281 53.9078 6.86715 54.3609 7.16127Z" fill="#89001E"/>
<path d="M7.31909 23.2267C7.88769 23.2267 8.34891 22.7598 8.34891 22.1842C8.34891 17.3606 9.57391 13.2442 11.9895 9.94921C13.7821 7.50446 15.6042 6.44324 15.6444 6.41969C16.14 6.14073 16.3199 5.50786 16.0453 5.00509C15.7698 4.50126 15.1435 4.31868 14.6458 4.59656C14.558 4.64582 12.4735 5.83072 10.4086 8.6085C8.5298 11.1362 6.28979 15.5439 6.28979 22.1842C6.28979 22.7598 6.75049 23.2267 7.31909 23.2267Z" fill="#89001E"/>
<path d="M2.77986 16.9734C3.3226 16.9734 3.76235 16.5354 3.76235 15.995C3.76235 9.75252 7.47216 7.26781 7.63573 7.16173C8.09012 6.87062 8.22341 6.2678 7.9331 5.81329C7.64179 5.35727 7.03443 5.22303 6.57601 5.51313C6.38112 5.63682 1.79688 8.62631 1.79688 15.995C1.79688 16.5354 2.23712 16.9734 2.77986 16.9734Z" fill="#89001E"/>
</svg>
