<svg width="24" height="24" fill="none" xmlns="http://www.w3.org/2000/svg"><path fill-rule="evenodd" clip-rule="evenodd" d="M19.94 20.722l-5.462-5.442-.028.024a6.854 6.854 0 01-4.448 1.615c-3.83 0-6.966-3.108-6.966-6.94 0-3.815 3.135-6.939 6.966-6.939 3.846 0 6.966 3.108 6.966 6.94a6.912 6.912 0 01-1.622 4.43l-.024.03 5.463 5.441a.594.594 0 01-.422 1.015.583.583 0 01-.422-.174zM15.775 9.98c0-3.164-2.581-5.751-5.772-5.751-3.175 0-5.772 2.587-5.772 5.75 0 3.164 2.58 5.751 5.772 5.751 3.19 0 5.772-2.571 5.772-5.75z" fill="#89001E"/></svg>