<svg width="38" height="15" fill="none" xmlns="http://www.w3.org/2000/svg"><path fill-rule="evenodd" clip-rule="evenodd" d="M17.375 0a.5.5 0 00-.5.5v14a.5.5 0 00.5.5H37a.5.5 0 00.5-.5V.5A.5.5 0 0037 0H17.375zm.5 1v2.38l8.9 4.45a.5.5 0 00.448 0L36.5 3.19V1H17.875zm0 11.5V4.498l5.584 2.792-5.584 5.212zm0 1.369V14h18.393l-6.68-6.236-1.918.959a1.5 1.5 0 01-1.342 0l-1.915-.958-6.538 6.103zm12.666-6.58l5.959 5.56V4.31l-5.959 2.98zM14 3.5a.5.5 0 01-.5.5H5.875a.5.5 0 010-1H13.5a.5.5 0 01.5.5zm-2 4a.5.5 0 01-.5.5H.5a.5.5 0 010-1h11a.5.5 0 01.5.5zm2 4a.5.5 0 01-.5.5H5.875a.5.5 0 010-1H13.5a.5.5 0 01.5.5z" fill="#fff"/></svg>