<svg width="21" height="13" viewBox="0 0 21 13" fill="none" xmlns="http://www.w3.org/2000/svg">
<path fill-rule="evenodd" clip-rule="evenodd" d="M10.2745 12.1128H11.5297C11.5297 12.1128 11.9089 12.0712 12.1025 11.8621C12.2806 11.6702 12.2749 11.3098 12.2749 11.3098C12.2749 11.3098 12.2504 9.62275 13.0321 9.37431C13.8027 9.12959 14.7923 11.0049 15.8411 11.7259C16.6343 12.2716 17.2369 12.152 17.2369 12.152L20.0414 12.1128C20.0414 12.1128 21.5084 12.0223 20.8128 10.8669C20.7558 10.7724 20.4077 10.0123 18.7277 8.45024C16.9692 6.8154 17.2047 7.07983 19.3229 4.25191C20.613 2.52969 21.1287 1.47825 20.9676 1.02792C20.8139 0.599009 19.8652 0.712377 19.8652 0.712377L16.7075 0.732081C16.7075 0.732081 16.4735 0.700098 16.2998 0.804042C16.1302 0.905988 16.021 1.14358 16.021 1.14358C16.021 1.14358 15.5213 2.47629 14.8547 3.60968C13.4487 6.00126 12.8865 6.12748 12.6567 5.97899C12.1221 5.63289 12.2556 4.58859 12.2556 3.8467C12.2556 1.52908 12.6065 0.562744 11.5722 0.312592C11.229 0.229494 10.9764 0.174666 10.0986 0.165813C8.9719 0.154105 8.01828 0.16924 7.47832 0.434241C7.1191 0.610432 6.842 1.00308 7.01077 1.02564C7.21945 1.05362 7.69213 1.15328 7.94273 1.4951C8.2663 1.93601 8.2549 2.92634 8.2549 2.92634C8.2549 2.92634 8.44078 5.65459 7.82071 5.99355C7.39507 6.226 6.81121 5.75139 5.55767 3.5817C4.91536 2.47029 4.43042 1.24181 4.43042 1.24181C4.43042 1.24181 4.33692 1.01222 4.17014 0.889425C3.96772 0.740648 3.68492 0.693245 3.68492 0.693245L0.684348 0.712948C0.684348 0.712948 0.233907 0.725514 0.0685549 0.921694C-0.0785513 1.09617 0.0568661 1.45712 0.0568661 1.45712C0.0568661 1.45712 2.406 6.96217 5.06589 9.7364C7.50483 12.2799 10.2745 12.1128 10.2745 12.1128Z" fill="#89001E"/>
</svg>
